#!OML:ASF F:\VICON\USERDATA\INSTALL\Justin_Nancy\Justin_Nancy.ASF
:FULLY-SPECIFIED
:DEGREES

101
root 0.731781 16.9342 -3.13204 0.56379 4.37022 7.28105
lowerback 4.75043 -3.0597 -9.87604
upperback 0.507533 -4.55336 2.01374
thorax -1.19923 -2.23898 7.8928
lowerneck -16.0056 -1.94387 -9.37642
upperneck 23.5458 -0.839048 2.5416
head 10.2402 -0.932643 2.36012
rclavicle -8.01102e-014 2.06736e-014
rhumerus -42.9787 -17 -72.2448
rradius 25.3848
rwrist 12.754
rhand -14.9556 15.4132
rfingers 7.12502
rthumb 11.2076 -14.2674
lclavicle -8.01102e-014 2.06736e-014
lhumerus -24.2886 -2.84244 83.2933
lradius 45.5156
lwrist -1.60716
lhand -17.6323 25.72
lfingers 7.12502
lthumb 8.62523 55.5238
rfemur -31.8046 0.890206 12.5608
rtibia 22.4364
rfoot -3.03803 -4.29586
rtoes -13.3006
lfemur 18.6829 -4.04714 -30.1736
ltibia 21.5438
lfoot -7.10676 -7.18729
ltoes -22.4366
102
root 0.705895 16.9624 -2.8443 0.418876 4.32076 6.83313
lowerback 4.77775 -3.07004 -9.55015
upperback 0.362692 -4.55558 2.19893
thorax -1.37625 -2.2263 7.91399
lowerneck -15.8874 -1.85267 -9.41995
upperneck 23.714 -0.686322 2.44567
head 10.2694 -0.882872 2.35576
rclavicle -1.08835e-014 3.10104e-014
rhumerus -43.6495 -17.5068 -71.5044
rradius 24.9461
rwrist 12.9946
rhand -14.6159 14.6462
rfingers 7.12502
rthumb 11.5352 -15.0164
lclavicle -1.08835e-014 3.10104e-014
lhumerus -24.7643 -2.16633 83.2189
lradius 45.7818
lwrist -1.58653
lhand -16.8069 26.3446
lfingers 7.12502
lthumb 9.42167 56.114
rfemur -31.6479 1.65702 12.8545
rtibia 23.4319
rfoot -1.54585 -3.20617
rtoes -12.2268
lfemur 18.3292 -4.26966 -29.612
ltibia 23.3134
lfoot -4.56869 -8.0375
ltoes -22.4383
103
root 0.684243 16.9892 -2.56375 0.320782 4.28926 6.21211
lowerback 4.99414 -3.06017 -8.95439
upperback 0.109202 -4.53537 2.38241
thorax -1.79866 -2.18713 7.7979
lowerneck -15.9823 -1.80394 -9.37154
upperneck 24.2074 -0.605364 2.39842
head 10.4618 -0.860724 2.34841
rclavicle -6.07287e-014 1.82882e-014
rhumerus -44.3636 -18.1547 -70.6988
rradius 24.4388
rwrist 13.3082
rhand -14.2301 13.6164
rfingers 7.12502
rthumb 11.9072 -16.025
lclavicle -6.07287e-014 1.82882e-014
lhumerus -25.1123 -1.53049 83.1264
lradius 45.7562
lwrist -1.53686
lhand -16.0066 27.4128
lfingers 7.12502
lthumb 10.1938 57.1458
rfemur -31.4416 2.2283 13.4496
rtibia 24.3381
rfoot -0.727511 -2.24258
rtoes -12.3533
lfemur 17.6177 -4.69698 -28.9084
ltibia 25.4407
lfoot -1.06215 -8.84254
ltoes -21.3561
104
root 0.66309 17.0159 -2.28318 0.115943 4.39878 5.62016
lowerback 5.21108 -3.09552 -8.40351
upperback 0.0302615 -4.56769 2.5427
thorax -2.02577 -2.19314 7.67621
lowerneck -16.1654 -1.81939 -9.06135
upperneck 24.3782 -0.602201 2.06057
head 10.5583 -0.875772 2.17746
rclavicle -8.79622e-015 -1.98785e-014
rhumerus -44.8809 -18.8868 -69.9891
rradius 24.0009
rwrist 13.8466
rhand -14.1343 13.0131
rfingers 7.12502
rthumb 11.9997 -16.623
lclavicle -8.79622e-015 -1.98785e-014
lhumerus -25.2566 -0.953444 83.0558
lradius 45.6495
lwrist -1.20308
lhand -16.2324 28.6801
lfingers 7.12502
lthumb 9.97596 58.4237
rfemur -30.9317 2.63986 14.0732
rtibia 25.2496
rfoot -0.370793 -1.28293
rtoes -12.2403
lfemur 16.6901 -5.0404 -28.1488
ltibia 27.9727
lfoot 2.892 -9.61349
ltoes -20.8913
105
root 0.647905 17.0359 -2.0023 -0.235687 4.3337 4.9163
lowerback 5.3322 -3.11314 -7.70182
upperback 0.123567 -4.55113 2.72036
thorax -2.03821 -2.1941 7.46998
lowerneck -16.3044 -1.83838 -9.13756
upperneck 24.3748 -0.595081 2.07037
head 10.5845 -0.878116 2.19458
rclavicle 3.60794e-014 -1.19271e-014
rhumerus -45.2673 -19.3086 -69.5167
rradius 23.8142
rwrist 14.1762
rhand -13.8412 12.4822
rfingers 7.12502
rthumb 12.2822 -17.1371
lclavicle 3.60794e-014 -1.19271e-014
lhumerus -25.5808 -0.299472 82.9745
lradius 45.7719
lwrist -0.965866
lhand -16.443 28.8899
lfingers 7.12502
lthumb 9.77272 58.6431
rfemur -30.223 2.8652 15.0196
rtibia 26.2755
rfoot 0.130214 -0.140509
rtoes -10.1727
lfemur 15.6808 -5.17601 -27.3066
ltibia 30.7963
lfoot 6.60557 -9.83153
ltoes -19.7707
106
root 0.632384 17.0572 -1.72815 -0.524712 4.21805 4.04192
lowerback 5.28335 -3.07219 -6.78471
upperback 0.304505 -4.42972 2.88773
thorax -1.89956 -2.15357 7.10871
lowerneck -16.4905 -1.86271 -9.22432
upperneck 24.3312 -0.638245 2.27182
head 10.6068 -0.879593 2.27543
rclavicle 5.725e-014 -3.4191e-014
rhumerus -45.4544 -19.9022 -69.1953
rradius 23.6346
rwrist 14.3215
rhand -13.5756 11.9943
rfingers 7.12502
rthumb 12.5383 -17.6095
lclavicle 5.725e-014 -3.4191e-014
lhumerus -25.7094 0.0334913 82.834
lradius 45.8705
lwrist -0.804162
lhand -15.9431 28.8056
lfingers 7.12502
lthumb 10.2551 58.5356
rfemur -29.5713 2.93306 16.2974
rtibia 27.3449
rfoot 0.249416 0.169076
rtoes -8.71308
lfemur 14.3696 -5.19261 -26.1869
ltibia 33.7663
lfoot 10.369 -10.1257
ltoes -16.4493
107
root 0.615061 17.0886 -1.4628 -0.566667 4.21848 3.46668
lowerback 5.26468 -3.08681 -6.24559
upperback 0.310446 -4.41185 3.06313
thorax -1.91245 -2.14847 6.98542
lowerneck -16.5794 -1.86704 -9.25304
upperneck 24.2196 -0.642443 2.32981
head 10.583 -0.873677 2.29917
rclavicle 1.5704e-014 -2.3059e-014
rhumerus -45.5583 -20.488 -68.7096
rradius 23.2083
rwrist 14.8173
rhand -13.4861 11.9824
rfingers 7.12502
rthumb 12.6246 -17.6161
lclavicle 1.5704e-014 -2.3059e-014
lhumerus -25.7614 0.634362 82.7993
lradius 45.6757
lwrist -0.738847
lhand -15.9573 29.3289
lfingers 7.12502
lthumb 10.2413 59.0596
rfemur -29.1443 2.7381 17.3278
rtibia 28.3682
rfoot 0.161063 0.126162
rtoes -9.14443
lfemur 12.5995 -5.20231 -25.2657
ltibia 36.7357
lfoot 14.6741 -10.7203
ltoes -12.8589
108
root 0.602973 17.1195 -1.19787 -0.590139 3.86558 2.96041
lowerback 5.28415 -2.96014 -5.75776
upperback 0.266543 -4.21097 3.2287
thorax -2.02463 -2.04571 6.87743
lowerneck -16.4745 -1.92815 -9.31244
upperneck 23.944 -0.713214 2.28543
head 10.4675 -0.909446 2.27956
rclavicle 2.30093e-014 -3.33958e-014
rhumerus -45.8545 -21.087 -68.0427
rradius 22.8293
rwrist 15.3771
rhand -13.1559 11.6265
rfingers 7.12502
rthumb 12.9429 -17.9521
lclavicle 2.30093e-014 -3.33958e-014
lhumerus -25.9619 1.2053 82.8233
lradius 45.5236
lwrist -0.628045
lhand -16.0069 30.1321
lfingers 7.12502
lthumb 10.1935 59.8651
rfemur -28.7779 2.81196 18.2639
rtibia 29.2472
rfoot 0.30861 0.663825
rtoes -6.82737
lfemur 10.7745 -5.07421 -24.5481
ltibia 39.6661
lfoot 19.494 -10.8436
ltoes -9.95862
